<?xml version="1.0" encoding="utf-8"?>
<!-- Generator: Adobe Illustrator 27.5.0, SVG Export Plug-In . SVG Version: 6.00 Build 0)  -->
<svg version="1.1" xmlns="http://www.w3.org/2000/svg" xmlns:xlink="http://www.w3.org/1999/xlink" x="0px" y="0px"
	 viewBox="0 0 500 500" style="enable-background:new 0 0 500 500;" xml:space="preserve">
<g id="Background_Simple">
	<g>
		<path style="fill:#92E3A9;" d="M454.977,143.958c0,0-80.396-115.753-180.779-128.034c-88.611-10.84-170.862,31.531-182.31,123.094
			c-4.079,32.625-11.343,68.717-24.243,98.484c-14.464,33.377-39.156,61.171-20.241,125.34
			c18.915,64.17,98.761,122.114,156.813,121.967c58.052-0.146,112.585-52.893,157.569-100.88
			C406.77,335.943,550.052,290.837,454.977,143.958z"/>
		<path style="opacity:0.7;fill:#FFFFFF;" d="M454.977,143.958c0,0-80.396-115.753-180.779-128.034
			c-88.611-10.84-170.862,31.531-182.31,123.094c-4.079,32.625-11.343,68.717-24.243,98.484
			c-14.464,33.377-39.156,61.171-20.241,125.34c18.915,64.17,98.761,122.114,156.813,121.967
			c58.052-0.146,112.585-52.893,157.569-100.88C406.77,335.943,550.052,290.837,454.977,143.958z"/>
	</g>
</g>
<g id="Plant">
	<g>
		<g>
			<g>
				<g>
					<path style="fill:#92E3A9;" d="M459.751,274.837c0,0,0-4.182-5.855-10.037c-5.855-5.855-9.619-9.2-9.619-9.2
						s-2.927,9.618,2.509,15.473c5.437,5.855,12.964,11.291,12.964,11.291V274.837z"/>
					<path style="fill:#92E3A9;" d="M451.254,300.955c0,0,0-4.182-5.855-10.037c-5.855-5.855-9.618-9.2-9.618-9.2
						s-2.928,9.618,2.509,15.473c5.437,5.855,12.964,11.291,12.964,11.291V300.955z"/>
					<path style="fill:#92E3A9;" d="M459.383,281.96c0,0,0.442-4.159,6.882-9.362c6.441-5.203,10.537-8.133,10.537-8.133
						s1.895,9.874-4.13,15.121c-6.025,5.247-14.085,9.859-14.085,9.859L459.383,281.96z"/>
					<path style="fill:#92E3A9;" d="M449.119,312.804c0,0,0.876-4.089,7.828-8.587c6.952-4.498,11.333-6.981,11.333-6.981
						s0.847,10.018-5.695,14.604c-6.543,4.586-15.042,8.324-15.042,8.324L449.119,312.804z"/>
					<path style="fill:#92E3A9;" d="M451.048,346.434c0,0,0-4.182,5.855-10.037c5.855-5.855,9.619-9.2,9.619-9.2
						s2.927,9.618-2.509,15.473c-5.436,5.855-12.964,11.291-12.964,11.291V346.434z"/>
					<path style="fill:#92E3A9;" d="M450.951,354.642c0,0,0.594-4.14-4.369-10.767c-4.963-6.627-8.214-10.474-8.214-10.474
						s-4.264,9.105,0.285,15.673c4.549,6.568,11.228,13.019,11.228,13.019L450.951,354.642z"/>
					<path style="fill:#92E3A9;" d="M445.177,378.968c0,0,0-4.182,5.855-10.037c5.855-5.855,9.618-9.2,9.618-9.2
						s2.927,9.618-2.509,15.473c-5.437,5.855-12.964,11.291-12.964,11.291V378.968z"/>
					<path style="fill:#92E3A9;" d="M449.087,401.024c0,0-1.059-4.046,3.122-11.192c4.181-7.147,6.975-11.336,6.975-11.336
						s5.268,8.564,1.492,15.604c-3.776,7.041-9.682,14.207-9.682,14.207L449.087,401.024z"/>
				</g>
				<path style="fill:none;stroke:#263238;stroke-width:0.5;stroke-linecap:round;stroke-linejoin:round;stroke-miterlimit:10;" d="
					M460.282,273.766c-0.343,4.47-0.851,9.095-1.604,12.985c-2.314,11.958-8.1,19.672-10.415,30.472
					c-2.314,10.8,4.33,24.715,2.55,38.587c-1.779,13.872-7.179,21.587-5.636,30.844c1.543,9.257,9.643,34.33,9.643,34.33"/>
				
					<line style="fill:none;stroke:#263238;stroke-width:0.5;stroke-linecap:round;stroke-linejoin:round;stroke-miterlimit:10;" x1="459.326" y1="284.74" x2="465.635" y2="279.898"/>
				
					<line style="fill:none;stroke:#263238;stroke-width:0.5;stroke-linecap:round;stroke-linejoin:round;stroke-miterlimit:10;" x1="459.619" y1="279.164" x2="456.978" y2="274.468"/>
				<path style="fill:none;stroke:#263238;stroke-width:0.5;stroke-linecap:round;stroke-linejoin:round;stroke-miterlimit:10;" d="
					M448.614,316.727c0,0,5.283-3.962,10.711-7.923"/>
				<path style="fill:none;stroke:#263238;stroke-width:0.5;stroke-linecap:round;stroke-linejoin:round;stroke-miterlimit:10;" d="
					M451.254,308.482c0,0-4.401-8.629-9.39-14.352"/>
				<path style="fill:none;stroke:#263238;stroke-width:0.5;stroke-linecap:round;stroke-linejoin:round;stroke-miterlimit:10;" d="
					M451.256,352.383c0,0,4.108-8.07,11.298-15.113"/>
				<path style="fill:none;stroke:#263238;stroke-width:0.5;stroke-linecap:round;stroke-linejoin:round;stroke-miterlimit:10;" d="
					M450.228,358.252c0,0-2.641-6.309-5.722-10.858c-3.082-4.549-3.522-5.136-3.522-5.136"/>
				<path style="fill:none;stroke:#263238;stroke-width:0.5;stroke-linecap:round;stroke-linejoin:round;stroke-miterlimit:10;" d="
					M445.178,386.654c0,0,2.116-5.365,4.757-9.62c2.641-4.255,6.163-8.07,6.163-8.07"/>
				<path style="fill:none;stroke:#263238;stroke-width:0.5;stroke-linecap:round;stroke-linejoin:round;stroke-miterlimit:10;" d="
					M450.994,408.306c0,0-0.618-5.008,1.582-9.263c2.201-4.255,4.695-9.831,5.722-12.032"/>
			</g>
			<g>
				<g>
					<path style="fill:#92E3A9;" d="M421.412,330.706c0,0-0.454-2.622,2.582-6.929c3.036-4.307,5.033-6.814,5.033-6.814
						s2.88,5.714,0.106,9.975c-2.774,4.262-6.904,8.488-6.904,8.488L421.412,330.706z"/>
					<path style="fill:#92E3A9;" d="M429.576,346.161c0,0-0.454-2.622,2.582-6.93c3.036-4.307,5.033-6.814,5.033-6.814
						s2.88,5.714,0.106,9.975c-2.774,4.262-6.904,8.488-6.904,8.488L429.576,346.161z"/>
					<path style="fill:#92E3A9;" d="M422.417,335.132c0,0-0.729-2.56-5.332-5.123c-4.604-2.564-7.49-3.956-7.49-3.956
						s-0.116,6.398,4.231,9.034c4.348,2.637,9.902,4.653,9.902,4.653L422.417,335.132z"/>
					<path style="fill:#92E3A9;" d="M432.202,353.36c0,0-0.993-2.469-5.841-4.535c-4.848-2.066-7.864-3.147-7.864-3.147
						s0.556,6.374,5.157,8.54c4.6,2.165,10.336,3.587,10.336,3.587L432.202,353.36z"/>
					<path style="fill:#92E3A9;" d="M434.642,374.658c0,0-0.454-2.622-4.761-5.658c-4.307-3.036-7.03-4.725-7.03-4.725
						s-0.792,6.349,3.253,9.431c4.045,3.081,9.355,5.673,9.355,5.673L434.642,374.658z"/>
					<path style="fill:#92E3A9;" d="M435.595,379.794c0,0-0.822-2.531,1.571-7.226c2.393-4.695,4.013-7.459,4.013-7.459
						s3.663,5.246,1.523,9.859c-2.14,4.613-5.628,9.383-5.628,9.383L435.595,379.794z"/>
					<path style="fill:#92E3A9;" d="M442.943,400.948c0,0,0.304-2.644,4.43-5.921c4.127-3.277,6.749-5.119,6.749-5.119
						s1.153,6.294-2.71,9.601c-3.862,3.307-9.016,6.198-9.016,6.198L442.943,400.948z"/>
					<path style="fill:#92E3A9;" d="M441.856,394.422c0,0-0.454-2.622-4.761-5.658c-4.307-3.036-7.03-4.725-7.03-4.725
						s-0.792,6.349,3.253,9.431c4.044,3.081,9.355,5.673,9.355,5.673L441.856,394.422z"/>
					<path style="fill:#92E3A9;" d="M441.799,408.677c0,0,0.225-2.652-3.173-6.68c-3.398-4.028-5.604-6.352-5.604-6.352
						s-2.374,5.942,0.759,9.947c3.133,4.005,7.613,7.858,7.613,7.858L441.799,408.677z"/>
				</g>
				<path style="fill:none;stroke:#263238;stroke-width:0.5;stroke-linecap:round;stroke-linejoin:round;stroke-miterlimit:10;" d="
					M420.964,330.091c0.7,2.766,1.521,5.611,2.415,7.968c2.749,7.247,7.215,11.457,9.839,17.978
					c2.624,6.521-0.032,15.968,2.59,24.474c2.621,8.506,6.845,12.757,6.883,18.73c0.037,5.973-2.32,22.574-2.32,22.574"/>
				
					<line style="fill:none;stroke:#263238;stroke-width:0.5;stroke-linecap:round;stroke-linejoin:round;stroke-miterlimit:10;" x1="422.754" y1="336.869" x2="418.272" y2="334.518"/>
				
					<line style="fill:none;stroke:#263238;stroke-width:0.5;stroke-linecap:round;stroke-linejoin:round;stroke-miterlimit:10;" x1="421.965" y1="333.404" x2="423.112" y2="330.173"/>
				<path style="fill:none;stroke:#263238;stroke-width:0.5;stroke-linecap:round;stroke-linejoin:round;stroke-miterlimit:10;" d="
					M432.944,355.765c0,0-3.743-1.911-7.577-3.806"/>
				<path style="fill:none;stroke:#263238;stroke-width:0.5;stroke-linecap:round;stroke-linejoin:round;stroke-miterlimit:10;" d="
					M430.393,350.882c0,0,1.823-5.889,4.33-10.019"/>
				<path style="fill:none;stroke:#263238;stroke-width:0.5;stroke-linecap:round;stroke-linejoin:round;stroke-miterlimit:10;" d="
					M435.159,378.411c0,0-3.453-4.615-8.726-8.251"/>
				<path style="fill:none;stroke:#263238;stroke-width:0.5;stroke-linecap:round;stroke-linejoin:round;stroke-miterlimit:10;" d="
					M436.44,381.98c0,0,0.971-4.243,2.41-7.43c1.439-3.187,1.651-3.603,1.651-3.603"/>
				<path style="fill:none;stroke:#263238;stroke-width:0.5;stroke-linecap:round;stroke-linejoin:round;stroke-miterlimit:10;" d="
					M442.487,403.772c0,0,2.971-3.641,4.82-5.004c1.849-1.363,3.13-2.722,3.13-2.722"/>
				<path style="fill:none;stroke:#263238;stroke-width:0.5;stroke-linecap:round;stroke-linejoin:round;stroke-miterlimit:10;" d="
					M442.69,399.242c0,0-1.909-3.135-4.028-5.516c-2.118-2.382-4.741-4.392-4.741-4.392"/>
				<path style="fill:none;stroke:#263238;stroke-width:0.5;stroke-linecap:round;stroke-linejoin:round;stroke-miterlimit:10;" d="
					M441.394,413.451c0,0-0.156-3.207-1.998-5.637c-1.842-2.429-4.012-5.655-4.895-6.924"/>
			</g>
		</g>
		<g>
			<path style="fill:#263238;" d="M460.445,470.36h-25.773c-1.344,0-2.433-1.089-2.433-2.433l-3.83-49.006h38.299l-3.83,49.006
				C462.878,469.27,461.788,470.36,460.445,470.36z"/>
		</g>
	</g>
</g>
<g id="Window">
	<g style="opacity:0.3;">
		<g>
			<polygon style="fill:none;stroke:#000000;stroke-linecap:round;stroke-linejoin:round;stroke-miterlimit:10;" points="
				137.975,50.715 48.812,50.715 49.714,37.706 138.877,37.706 			"/>
			<polygon style="fill:none;stroke:#000000;stroke-linecap:round;stroke-linejoin:round;stroke-miterlimit:10;" points="
				137.975,68.927 48.812,68.927 49.714,55.918 138.877,55.918 			"/>
			<polygon style="fill:none;stroke:#000000;stroke-linecap:round;stroke-linejoin:round;stroke-miterlimit:10;" points="
				137.975,87.139 48.812,87.139 49.714,74.13 138.877,74.13 			"/>
			<polygon style="fill:none;stroke:#000000;stroke-linecap:round;stroke-linejoin:round;stroke-miterlimit:10;" points="
				137.975,105.351 48.812,105.351 49.714,92.343 138.877,92.343 			"/>
			<polygon style="fill:none;stroke:#000000;stroke-linecap:round;stroke-linejoin:round;stroke-miterlimit:10;" points="
				137.975,123.564 48.812,123.564 49.714,110.555 138.877,110.555 			"/>
			<polygon style="fill:none;stroke:#000000;stroke-linecap:round;stroke-linejoin:round;stroke-miterlimit:10;" points="
				137.975,141.776 48.812,141.776 49.714,128.767 138.877,128.767 			"/>
			<polygon style="fill:none;stroke:#000000;stroke-linecap:round;stroke-linejoin:round;stroke-miterlimit:10;" points="
				137.975,159.988 48.812,159.988 49.714,146.98 138.877,146.98 			"/>
			<polygon style="fill:none;stroke:#000000;stroke-linecap:round;stroke-linejoin:round;stroke-miterlimit:10;" points="
				137.975,178.201 48.812,178.201 49.714,165.192 138.877,165.192 			"/>
			<polygon style="fill:none;stroke:#000000;stroke-linecap:round;stroke-linejoin:round;stroke-miterlimit:10;" points="
				137.975,196.413 48.812,196.413 49.714,183.404 138.877,183.404 			"/>
			<polygon style="fill:none;stroke:#000000;stroke-linecap:round;stroke-linejoin:round;stroke-miterlimit:10;" points="
				137.975,214.625 48.812,214.625 49.714,201.616 138.877,201.616 			"/>
			<polygon style="fill:none;stroke:#000000;stroke-linecap:round;stroke-linejoin:round;stroke-miterlimit:10;" points="
				137.975,232.837 48.812,232.837 49.714,219.829 138.877,219.829 			"/>
		</g>
		<g>
			<polygon style="fill:none;stroke:#000000;stroke-linecap:round;stroke-linejoin:round;stroke-miterlimit:10;" points="
				232.251,50.715 143.088,50.715 143.99,37.706 233.153,37.706 			"/>
			<polygon style="fill:none;stroke:#000000;stroke-linecap:round;stroke-linejoin:round;stroke-miterlimit:10;" points="
				232.251,68.927 143.088,68.927 143.99,55.918 233.153,55.918 			"/>
			<polygon style="fill:none;stroke:#000000;stroke-linecap:round;stroke-linejoin:round;stroke-miterlimit:10;" points="
				232.251,87.139 143.088,87.139 143.99,74.13 233.153,74.13 			"/>
			<polygon style="fill:none;stroke:#000000;stroke-linecap:round;stroke-linejoin:round;stroke-miterlimit:10;" points="
				232.251,105.351 143.088,105.351 143.99,92.343 233.153,92.343 			"/>
			<polygon style="fill:none;stroke:#000000;stroke-linecap:round;stroke-linejoin:round;stroke-miterlimit:10;" points="
				232.251,123.564 143.088,123.564 143.99,110.555 233.153,110.555 			"/>
			<polygon style="fill:none;stroke:#000000;stroke-linecap:round;stroke-linejoin:round;stroke-miterlimit:10;" points="
				232.251,141.776 143.088,141.776 143.99,128.767 233.153,128.767 			"/>
			<polygon style="fill:none;stroke:#000000;stroke-linecap:round;stroke-linejoin:round;stroke-miterlimit:10;" points="
				232.251,159.988 143.088,159.988 143.99,146.98 233.153,146.98 			"/>
			<polygon style="fill:none;stroke:#000000;stroke-linecap:round;stroke-linejoin:round;stroke-miterlimit:10;" points="
				232.251,178.201 143.088,178.201 143.99,165.192 233.153,165.192 			"/>
			<polygon style="fill:none;stroke:#000000;stroke-linecap:round;stroke-linejoin:round;stroke-miterlimit:10;" points="
				232.251,196.413 143.088,196.413 143.99,183.404 233.153,183.404 			"/>
			<polygon style="fill:none;stroke:#000000;stroke-linecap:round;stroke-linejoin:round;stroke-miterlimit:10;" points="
				232.251,214.625 143.088,214.625 143.99,201.616 233.153,201.616 			"/>
			<polygon style="fill:none;stroke:#000000;stroke-linecap:round;stroke-linejoin:round;stroke-miterlimit:10;" points="
				232.251,232.837 143.088,232.837 143.99,219.829 233.153,219.829 			"/>
		</g>
	</g>
</g>
<g id="Picture">
	<g style="opacity:0.3;">
		
			<rect x="340.784" y="40.121" style="fill:none;stroke:#000000;stroke-linecap:round;stroke-linejoin:round;stroke-miterlimit:10;" width="96.896" height="124.778"/>
		
			<rect x="348.79" y="50.432" style="fill:none;stroke:#000000;stroke-linecap:round;stroke-linejoin:round;stroke-miterlimit:10;" width="80.882" height="104.156"/>
		
			<rect x="372.706" y="81.23" style="fill:none;stroke:#000000;stroke-linecap:round;stroke-linejoin:round;stroke-miterlimit:10;" width="33.05" height="42.561"/>
	</g>
</g>
<g id="Device">
	<g>
		<g>
			<g>
				<g>
					<path style="fill:#FFFFFF;stroke:#808080;stroke-linecap:round;stroke-linejoin:round;stroke-miterlimit:10;" d="
						M76.034,302.639h32.561c1.301,0,2.356-1.055,2.356-2.356c0-1.301-1.054-2.356-2.356-2.356H76.034
						c-1.564,0-3.068-0.664-4.12-1.822c-1.296-1.426-1.761-3.386-1.242-5.241l11.552-41.395c0.35-1.253-0.383-2.553-1.636-2.902
						c-1.248-0.352-2.552,0.383-2.902,1.636l-11.552,41.395c-0.955,3.427-0.097,7.043,2.295,9.677
						C70.373,301.413,73.145,302.639,76.034,302.639z"/>
				</g>
				<g>
					
						<rect x="85.759" y="194.245" transform="matrix(-0.9929 0.119 -0.119 -0.9929 207.1377 472.1204)" style="fill:#FFFFFF;stroke:#808080;stroke-linecap:round;stroke-linejoin:round;stroke-miterlimit:10;" width="7.425" height="96"/>
					<path style="fill:#757575;stroke:#808080;stroke-miterlimit:10;" d="M80.071,195.029c0,0-13.093,46.733,11.429,95.317
						L80.071,195.029z"/>
				</g>
			</g>
		</g>
	</g>
</g>
<g id="Chair">
	<g>
		<g>
			<g>
				<path style="fill:#757575;stroke:#808080;stroke-miterlimit:10;" d="M389.96,212.829l-36.196,0.299c0,0-2.393-0.299-2.991,1.496
					c0,0-6.282,15.854-6.581,21.538c-0.299,5.684,1.197,4.786-1.197,12.265c-2.393,7.478-9.273,25.128-13.162,39.488
					c-5.227,19.299-6.589,39.781-6.92,59.7c-0.053,3.196-1.964,30.701,3.011,30.701c4.129,0,42.212,5.047,42.671-2.294
					c1.829-29.262-3.456-57.854,6.708-86.314c3.947-11.052,8.474-22.726,11.823-34.288c3.363-11.611,3.935-23.579,6.125-35.41
					C394.746,211.932,389.96,212.829,389.96,212.829z"/>
				<path style="fill:#FFFFFF;stroke:#808080;stroke-linecap:round;stroke-linejoin:round;stroke-miterlimit:10;" d="
					M393.504,216.413c-0.357-4.177-3.544-3.584-3.544-3.584l-36.196,0.299c0,0-2.393-0.299-2.991,1.496
					c0,0-6.282,15.854-6.581,21.538c-0.116,2.198,0.036,3.411,0.129,4.505l0.769,1.179c0,0,1.196,10.47,15.555,11.068
					c14.359,0.598,22.435-5.983,25.427-12.265c2.991-6.282,4.188-16.453,6.581-22.436
					C392.892,217.613,393.189,217.013,393.504,216.413z"/>
			</g>
			<path style="fill:#FFFFFF;stroke:#808080;stroke-linecap:round;stroke-linejoin:round;stroke-miterlimit:10;" d="
				M385.113,228.098c-2.427,8.739-0.971,11.166-3.398,26.217c-2.428,15.051-11.166,32.043-14.565,47.579
				c-3.398,15.536-1.942,70.397-1.456,72.824c0.185,0.924,0.229,2.412,0.212,3.9c1.63-0.608,2.617-1.452,2.688-2.596
				c1.829-29.262-3.456-57.854,6.708-86.314c3.947-11.052,8.475-22.725,11.823-34.288c3.363-11.611,3.935-23.579,6.125-35.41
				c0.919-4.963-0.533-6.532-1.79-7.009l-0.035,0.047C391.425,213.047,387.541,219.359,385.113,228.098z"/>
		</g>
		<path style="fill:#757575;stroke:#808080;stroke-miterlimit:10;" d="M315.202,448.998l-0.243-0.194v-33.79h4.855v-21.362h-17.963
			v21.362h4.855v34.371l-42.966,13.693v3.398c0,2.145,1.739,3.884,3.884,3.884c2.145,0,3.884-1.739,3.884-3.884v-0.485l35.927-4.178
			v5.148c0,1.877,1.521,3.399,3.398,3.399c1.877,0,3.398-1.522,3.398-3.399v-5.318l37.383,4.347v0.485
			c0,2.145,1.739,3.884,3.884,3.884c2.145,0,3.884-1.739,3.884-3.884v-3.398L315.202,448.998z"/>
		<path style="fill:#757575;stroke:#808080;stroke-miterlimit:10;" d="M367.347,397.587H258.805c-2.209,0-4-1.791-4-4V376.81
			c0-2.209,1.791-4,4-4h108.542c2.209,0,4,1.791,4,4v16.777C371.347,395.796,369.556,397.587,367.347,397.587z"/>
	</g>
</g>
<g id="Desk">
	<g>
		<rect x="54.993" y="321.802" style="fill:#757575;stroke:#808080;stroke-miterlimit:10;" width="92.478" height="148.364"/>
		<g>
			<polygon style="fill:#FFFFFF;stroke:#808080;stroke-linecap:round;stroke-linejoin:round;stroke-miterlimit:10;" points="
				48.308,302.428 50.309,470.36 59.646,470.36 61.647,331.117 344.289,331.117 347.914,470.36 355.498,470.36 357.124,302.428 			
				"/>
		</g>
		<rect x="48.447" y="306.46" style="fill:#757575;stroke:#808080;stroke-miterlimit:10;" width="308.448" height="4.646"/>
		
			<rect x="41.802" y="299.675" style="fill:#FFFFFF;stroke:#808080;stroke-linecap:round;stroke-linejoin:round;stroke-miterlimit:10;" width="317.49" height="7.341"/>
	</g>
</g>
<g id="Floor">
	
		<line style="fill:none;stroke:#263238;stroke-linecap:round;stroke-linejoin:round;stroke-miterlimit:10;" x1="15.74" y1="470.36" x2="488.961" y2="470.36"/>
</g>
<g id="Lines">
	<g>
		
			<polyline style="fill:none;stroke:#263238;stroke-width:2;stroke-linecap:round;stroke-linejoin:round;stroke-miterlimit:10;" points="
			176.428,264.536 178.922,265.774 187.838,260.47 193.331,266.659 202.934,260.142 208.454,266.716 216.684,262.625 
			223.606,267.159 		"/>
		
			<polyline style="fill:none;stroke:#263238;stroke-width:2;stroke-linecap:round;stroke-linejoin:round;stroke-miterlimit:10;" points="
			187.026,295.937 189.568,295.873 194.507,287.785 201.583,290.44 206.558,281.079 213.822,284.034 218.723,277.219 
			226.248,277.927 		"/>
	</g>
</g>
<g id="Character">
	<g>
		<g>
			<path style="fill:#FFFFFF;stroke:#263238;stroke-linecap:round;stroke-linejoin:round;stroke-miterlimit:10;" d="
				M212.768,456.347c0,0-4.997,3.333-6.622,5.102c-1.625,1.769-10.586,6.909-13.569,8.736c-2.982,1.827-5.921,4.671-4.153,6.296
				c1.769,1.625,6.578,2.781,11.372,3.597c4.794,0.816,9.149-0.728,12.853-1.566c3.704-0.837,10.745-3.176,17.857-3.818
				c7.113-0.642,9.575,1.294,10.63-5.891c1.055-7.185-0.887-12.882-0.887-12.882l-23.547-2.06L212.768,456.347z"/>
			<path style="fill:#FFFFFF;stroke:#263238;stroke-linecap:round;stroke-linejoin:round;stroke-miterlimit:10;" d="
				M241.137,468.803c-3.914,3.906-11.849,1.183-17.561,2.785c-5.712,1.602-13.727,5.003-18.789,5.897
				c-3.786,0.669-12.108-2.463-16.062-4.084c-0.891,1.145-1.186,2.265-0.3,3.079c1.769,1.625,6.578,2.781,11.372,3.597
				c4.794,0.816,9.149-0.728,12.853-1.566c3.704-0.837,10.745-3.176,17.857-3.818C237.62,474.052,240.082,475.988,241.137,468.803z"
				/>
		</g>
		<path style="fill:#FFFFFF;stroke:#263238;stroke-linecap:round;stroke-linejoin:round;stroke-miterlimit:10;" d="M326.705,450.211
			c0,0,0.519,12.217-0.059,14.622c-0.578,2.404-9.547,15.365-6.378,17.95c3.17,2.585,18.016-0.085,23.331-3.03
			c5.315-2.945,9.496-8.563,8.811-16.693c-0.685-8.131-4.005-22.269-4.005-22.269L326.705,450.211z"/>
		<path style="fill:#FFFFFF;stroke:#263238;stroke-linecap:round;stroke-linejoin:round;stroke-miterlimit:10;" d="M343.598,479.753
			c5.315-2.946,9.496-8.563,8.811-16.693c-0.033-0.389-0.073-0.796-0.117-1.21c-0.677,2.118-1.577,4.545-2.706,6.769
			c-2.824,5.56-5.806,7.386-13.85,10.108c-5.568,1.884-12.368,1.539-16.029,1.149c-0.239,1.311-0.121,2.351,0.561,2.908
			C323.437,485.369,338.283,482.699,343.598,479.753z"/>
		<path style="fill:#263238;stroke:#263238;stroke-linecap:round;stroke-linejoin:round;stroke-miterlimit:10;" d="M232.671,281.782
			c0,0-20.977,70.934-21.53,73.625c-0.553,2.691,7.111,88.702,7.111,88.702l-5.794,4.915l0.311,7.323c0,0,6.105,2.409,10.794,2.877
			c4.689,0.468,16.758,1.957,16.758,1.957s5.015-7.55,4.846-11.544c-0.17-3.995-1.005-7.961-1.118-10.624
			c-0.113-2.663,8.073-76.674,8.073-76.674l19.489-48.205l9.53,55.94l34.146,65.915l3.753,9.845l0.864,4.632l7.55,5.015
			c0,0,21.079-6.231,21.575-10.254c0.496-4.023,0.129-12.678-1.372-16.616c-1.501-3.938-4.051-1.162-6.359-8.401
			c-2.308-7.239-23.437-65.036-23.437-65.036l1.866-77.448C319.724,277.727,275.048,291.015,232.671,281.782z"/>
		<g>
			<path style="fill:#92E3A9;stroke:#263238;stroke-linecap:round;stroke-linejoin:round;stroke-miterlimit:10;" d="M230.329,159.17
				c0,0-15.504,11.302-18.038,14.568c-2.534,3.267-7.58,3.79-5.936,11.526c1.644,7.737,4.296,48.214,4.296,48.214
				s2.108,3.543,10.065,2.807c7.957-0.736,12.726-2.933,12.726-2.933l2.164,4.309c0,0-0.296,19.125-0.909,25.486
				c-0.613,6.361-2.027,18.635-2.027,18.635s7.643,7.606,25.784,9.207c18.142,1.6,32.355,4.258,44.431-1.246
				c12.076-5.505,16.587-11.227,16.838-12.015c0.25-0.789,1.103-14.408,0.139-27.586c-0.964-13.178-0.784-23.359-0.784-23.359
				s0.499-47.948-2.902-58.637c-3.401-10.689-5.501-9.92-15.196-13.986c-9.695-4.067-18.762-5.869-25.254-6.164
				c-6.492-0.296-14.92,0.321-14.92,0.321S239.456,151.262,230.329,159.17z"/>
			<g>
				<path style="fill:none;stroke:#263238;stroke-linecap:round;stroke-linejoin:round;stroke-miterlimit:10;" d="M237.58,239.365
					c0,0,7.744,8.985,20.47,12.368"/>
				<path style="fill:none;stroke:#263238;stroke-linecap:round;stroke-linejoin:round;stroke-miterlimit:10;" d="M255.459,247.917
					c0,0,3.977,1.712,13.907,2.68"/>
				<path style="fill:none;stroke:#263238;stroke-linecap:round;stroke-linejoin:round;stroke-miterlimit:10;" d="M281.998,275.864
					c0,0,12.778,1.993,24.357,0.221"/>
				<path style="fill:none;stroke:#263238;stroke-linecap:round;stroke-linejoin:round;stroke-miterlimit:10;" d="M287.346,273.162
					c0,0,10.091-1.046,21.652-7.283"/>
			</g>
		</g>
		<path style="fill:#263238;stroke:#263238;stroke-linecap:round;stroke-linejoin:round;stroke-miterlimit:10;" d="M236.211,167.983
			c0,0,1.48,7.595,2.122,12.169c0.643,4.575,4.41,11.848,4.41,11.848l8.626-6.331l8.234-5.378l10.906,1.667l11.167,1.032
			c0,0-3.194-24.724-6.349-32.042c-3.154-7.318-9.478-5.315-15.323-5.196c-5.845,0.119-23.281,8.173-24.425,11.492
			S236.211,167.983,236.211,167.983z"/>
		<path style="fill:#FFFFFF;stroke:#263238;stroke-linecap:round;stroke-linejoin:round;stroke-miterlimit:10;" d="M252.954,184.167
			c0,0,9.485,9.628,9.811,7.756c0.325-1.872,2.008-16.785,2.008-16.785S259.663,183.214,252.954,184.167z"/>
		<g>
			<path style="fill:#FFFFFF;stroke:#263238;stroke-linecap:round;stroke-linejoin:round;stroke-miterlimit:10;" d="
				M218.762,148.461c0,0,1.951,7.714,4.679,9.209c2.728,1.495,3.79,1.263,3.79,1.263l-4.683-11.366
				C222.548,147.568,218.799,144.761,218.762,148.461z"/>
			<path style="fill:#FFFFFF;stroke:#263238;stroke-linecap:round;stroke-linejoin:round;stroke-miterlimit:10;" d="
				M223.022,149.844c0.214,0.409,7.306,15.642,8.36,17.413c1.054,1.772,15.824,16.251,17.741,17.189s6.933,2.112,10.203,0.486
				c3.27-1.626,7.419-8.091,9.539-17.027c2.12-8.936,3.207-13.021,2.983-16.086c-0.224-3.065-0.953-6.709-0.953-6.709
				s4.171-6.159,3.835-10.756c-0.336-4.597-1.872-6.642-3.812-7.886c-1.94-1.245-6.376,3.393-7.131,3.603
				c-0.755,0.209-1.495-3.588-8.581-5.689c-7.086-2.101-10.727,0.785-17.503,7.134c-6.776,6.35-15.567,12.539-15.567,12.539
				S220.694,145.393,223.022,149.844z"/>
			<path style="fill:none;stroke:#263238;stroke-linecap:round;stroke-linejoin:round;stroke-miterlimit:10;" d="M247.105,175.813
				c0,0,2.347,2.601,4.272,1.536c1.925-1.065,3.726-3.816,3.726-3.816"/>
			<g>
				<path style="fill:#FFFFFF;stroke:#263238;stroke-linecap:round;stroke-linejoin:round;stroke-miterlimit:10;" d="M258.92,177.26
					c-2.091-3.4-6.721,0.285-8.834,2.261c-0.822,0.768-0.181,2.185,0.932,2.018c0.016-0.003,0.033-0.005,0.05-0.008
					c1.674-0.277,3.532-2.261,5.58-1.641C258.695,180.512,261.367,181.241,258.92,177.26z"/>
				<path style="fill:none;stroke:#263238;stroke-linecap:round;stroke-linejoin:round;stroke-miterlimit:10;" d="M258.92,177.26
					c0,0-3.304,1.166-5.12,1.607"/>
			</g>
			<path style="fill:none;stroke:#263238;stroke-linecap:round;stroke-linejoin:round;stroke-miterlimit:10;" d="M254.203,160.502
				c0,0,1.865-4.332,8.127-3.615"/>
			<path style="fill:none;stroke:#263238;stroke-width:2;stroke-linecap:round;stroke-linejoin:round;stroke-miterlimit:10;" d="
				M250.743,158.139c0,0-0.472-3.223,9.051-6.101"/>
			<path style="fill:none;stroke:#263238;stroke-width:2;stroke-linecap:round;stroke-linejoin:round;stroke-miterlimit:10;" d="
				M242.599,160.176c0,0-3.632-3.762-10.102-0.436"/>
			<path style="fill:none;stroke:#263238;stroke-linecap:round;stroke-linejoin:round;stroke-miterlimit:10;" d="M235.319,163.897
				c0,0,3.013-2.402,6.392,0.204"/>
		</g>
		<path style="fill:#263238;stroke:#263238;stroke-linecap:round;stroke-linejoin:round;stroke-miterlimit:10;" d="M214.972,140.882
			c0,0-10.237,5.37-3.936,9.377c6.301,4.007,26.738-3.034,29.328-5.534c2.59-2.5,5.375-6.555,5.375-6.555s0.396,1.203-0.617,4.205
			c-1.013,3.001,3.651,3.584,5.128-3.61c1.477-7.195,2.706-11.444,3.241-12.562s-0.568,6.974,1.625,9.587
			c2.194,2.613,6.746,1.663,7.71,2.209c0.964,0.546,2.579,3.663,3.487,3.442c0.908-0.221,2.77-0.048,2.142-2.313
			c-0.628-2.265-1.244-4.377-1.016-5.472c0.228-1.095,0.639-3.898,2.74-4.668c2.1-0.77,2.557-2.96,2.048-5.696
			c-0.508-2.736-2.219-11.392-6.585-16.311c-4.365-4.919-13.649-5.472-13.649-5.472s-6.282-5.857-16.568-3.256
			c-10.286,2.601-28.014,25.619-26.829,33.39C209.781,139.412,214.972,140.882,214.972,140.882z"/>
		<path style="fill:none;stroke:#263238;stroke-linecap:round;stroke-linejoin:round;stroke-miterlimit:10;" d="M233.442,233.351
			c0,0-8.816-15.223-13.618-32.434"/>
		<g>
			<path style="fill:#FFFFFF;stroke:#263238;stroke-linecap:round;stroke-linejoin:round;stroke-miterlimit:10;" d="
				M213.589,235.728c0,0,2.268,14.161,4.484,17.081s18.429,16.061,22.977,19.271c4.548,3.211,12.872,5.375,14.097,5.285
				c1.226-0.09,20.952,0.008,22.167-0.234c1.215-0.243,8.817-3.726,10.555-5.24c1.738-1.514,2.927-4.219,3.035-4.844
				c0.108-0.624,0.991-3.308,1.009-5.158c0.019-1.85,0.949-1.764,0.019-1.85c-0.931-0.086-1.544-0.041-6.6,0.329
				c-5.057,0.37-14.326,2.126-14.786,2.16c-0.46,0.034-2.392,3.102-5.038,4.836c-2.646,1.734-15.914,1.472-16.916-1.69
				c-1.001-3.162-8.147-14.502-10.344-19.271l-3.184-5.621l0.542-3.121l-2.164-4.309
				C233.442,233.351,223.762,237.911,213.589,235.728z"/>
			<g>
				<path style="fill:none;stroke:#263238;stroke-linecap:round;stroke-linejoin:round;stroke-miterlimit:10;" d="M287.87,271.891
					c0,0-6.335,1.85-8.316,2.149c-1.981,0.299-5.517,0.403-5.517,0.403"/>
				<path style="fill:none;stroke:#263238;stroke-linecap:round;stroke-linejoin:round;stroke-miterlimit:10;" d="M276.175,269.973
					c0,0,7.467,0.994,8.682,0.752c1.215-0.243,6.047-3.677,6.047-3.677"/>
				<path style="fill:none;stroke:#263238;stroke-linecap:round;stroke-linejoin:round;stroke-miterlimit:10;" d="M278.414,266.882
					c0,0,6.963,0.415,8.32,0.008c1.357-0.407,5.18-5.001,5.18-5.001"/>
			</g>
			<path style="fill:none;stroke:#263238;stroke-linecap:round;stroke-linejoin:round;stroke-miterlimit:10;" d="M219.815,240.818
				c0,0,7.789-3.035,14.165-0.111"/>
		</g>
		<g>
			<path style="fill:#FFFFFF;stroke:#263238;stroke-linecap:round;stroke-linejoin:round;stroke-miterlimit:10;" d="
				M310.962,229.531c0,0-29.064,19.688-34.554,22.554c-5.491,2.866-11.945,5.187-12.689,5.55
				c-0.744,0.363-10.648,1.857-11.994,2.418c-1.346,0.561-2.329,1.865-2.971,3.607c-0.643,1.742-2.598,4.504-3.898,5.677
				s-3.345,2.71,0.037,2.616c3.382-0.093,5.349-2.702,6.189-3.842c0.841-1.14,2.175-1.854,2.175-1.854s-1.417,3.801-2.246,5.094
				c-0.83,1.293-4.803,8.054-4.1,9.235c0.703,1.181,1.02,1.312,2.586,1.66c1.566,0.348,3.095-1.921,3.095-1.921
				c1.065,1.925,1.592,2.811,2.96,2.556c1.368-0.254,2.022-1.842,2.788-1.898s1.697,0.03,3.842-0.127
				c2.145-0.157,3.555-1.955,3.555-1.955s1.401,0.206,2.669-1.428c1.267-1.633,1.308-3.177,1.271-5.793
				c-0.037-2.616,1.021-5.005,1.021-5.005s22.257-5.325,32.957-8.572c10.701-3.247,31.343-18.006,35.343-22.304
				c3.999-4.298-4.256-18.176-4.256-18.176L310.962,229.531z"/>
			<path style="fill:#92E3A9;stroke:#263238;stroke-linecap:round;stroke-linejoin:round;stroke-miterlimit:10;" d="
				M298.573,199.164c0,0-0.688,7.445-0.389,9.426c0.299,1.981,11.368,22.739,11.368,22.739s11.414-1.913,18.994-5.703
				c7.58-3.79,13.328-9.448,13.328-9.448s-16.317-29.31-17.576-35.996c-1.259-6.687-5.288-19.641-8.509-21.562
				c-3.222-1.921-12.748-3.689-13.668-3.622"/>
		</g>
	</g>
</g>
</svg>
